<?xml version="1.0" encoding="UTF-8" standalone="no"?>
<svg
   xmlns:dc="http://purl.org/dc/elements/1.1/"
   xmlns:cc="http://creativecommons.org/ns#"
   xmlns:rdf="http://www.w3.org/1999/02/22-rdf-syntax-ns#"
   xmlns:svg="http://www.w3.org/2000/svg"
   xmlns="http://www.w3.org/2000/svg"
   xmlns:sodipodi="http://sodipodi.sourceforge.net/DTD/sodipodi-0.dtd"
   xmlns:inkscape="http://www.inkscape.org/namespaces/inkscape"
   width="210mm"
   height="297mm"
   viewBox="0 0 210 297"
   version="1.1"
   id="svg3135"
   inkscape:version="1.0.1 (c497b03c, 2020-09-10)"
   sodipodi:docname="polyme.svg">
  <defs
     id="defs3129" />
  <sodipodi:namedview
     id="base"
     pagecolor="#ffffff"
     bordercolor="#666666"
     borderopacity="1.0"
     inkscape:pageopacity="0.0"
     inkscape:pageshadow="2"
     inkscape:zoom="0.46778476"
     inkscape:cx="381.26803"
     inkscape:cy="565.07166"
     inkscape:document-units="mm"
     inkscape:current-layer="layer1"
     inkscape:document-rotation="0"
     showgrid="false"
     inkscape:window-width="1440"
     inkscape:window-height="817"
     inkscape:window-x="0"
     inkscape:window-y="23"
     inkscape:window-maximized="0" />
  <metadata
     id="metadata3132">
    <rdf:RDF>
      <cc:Work
         rdf:about="">
        <dc:format>image/svg+xml</dc:format>
        <dc:type
           rdf:resource="http://purl.org/dc/dcmitype/StillImage" />
        <dc:title></dc:title>
      </cc:Work>
    </rdf:RDF>
  </metadata>
  <g
     inkscape:label="Layer 1"
     inkscape:groupmode="layer"
     id="layer1">
    <path
       style="display:inline;fill:#9b7665;fill-opacity:1;stroke:#eb7b51;stroke-width:0.3;stroke-linecap:butt;stroke-linejoin:miter;stroke-opacity:1;stroke-miterlimit:4;stroke-dasharray:none"
       d="m 109.24113,44.038074 5.96724,-0.267957 6.67762,7.368797 3.12569,4.689235 -20.88532,8.30664 -3.83608,-2.143649 0.85246,-2.813537 2.55738,-1.339784 5.11478,-1.741715 1.56285,-4.153323 -1.84701,-4.823212 z"
       id="path848" />
    <path
       style="display:inline;fill:#cbaa96;fill-opacity:1;stroke:#eb7b51;stroke-width:0.3;stroke-linecap:butt;stroke-linejoin:miter;stroke-opacity:1;stroke-miterlimit:4;stroke-dasharray:none"
       d="m 104.12636,64.134789 -0.85246,3.885365 2.27322,1.875694 3.69401,4.957193 5.25685,-6.966865 -0.73925,-7.582433 z"
       id="path867" />
    <path
       style="display:inline;fill:#c69d8b;fill-opacity:1;stroke:#eb7b51;stroke-width:0.3;stroke-linecap:butt;stroke-linejoin:miter;stroke-opacity:1;stroke-miterlimit:4;stroke-dasharray:none"
       d="m 113.75873,60.303743 0.73925,7.582433 6.10932,-0.267955 3.83608,-1.741716 5.39892,-10.450292 -0.85247,-1.205803 -5.71566,-0.998914 1.73751,2.606653 z"
       id="path869" />
    <path
       style="display:inline;fill:#caa593;fill-opacity:1;stroke:#eb7b51;stroke-width:0.3;stroke-linecap:butt;stroke-linejoin:miter;stroke-opacity:1;stroke-miterlimit:4;stroke-dasharray:none"
       d="m 109.24113,74.853041 2.69946,11.79007 4.40439,-0.53591 -0.71038,-8.574593 4.26231,-6.430954 0.71039,-3.483433 -6.10932,0.267955 -5.25685,6.966865"
       id="path871" />
    <path
       style="display:inline;fill:#8e6151;fill-opacity:1;stroke:#eb7b51;stroke-width:0.3;stroke-linecap:butt;stroke-linejoin:miter;stroke-opacity:1;stroke-miterlimit:4;stroke-dasharray:none"
       d="m 109.24113,74.853041 -0.99454,11.924048 0.71039,6.966865 2.13116,-0.133978 0.85245,-6.966865 z"
       id="path873" />
    <path
       style="display:inline;fill:#cba79c;fill-opacity:1;stroke:#eb7b51;stroke-width:0.3;stroke-linecap:butt;stroke-linejoin:miter;stroke-opacity:1;stroke-miterlimit:4;stroke-dasharray:none"
       d="m 111.94059,86.643111 -0.85245,6.966865 v 0 l 2.13114,1.875694 h 2.5574 l 2.69946,-2.411612 -2.13116,-6.966857 z"
       id="path875" />
    <path
       style="display:inline;fill:#805044;fill-opacity:1;stroke:#eb7b51;stroke-width:0.3;stroke-linecap:butt;stroke-linejoin:miter;stroke-opacity:1;stroke-miterlimit:4;stroke-dasharray:none"
       d="m 108.95698,93.743954 v 0 l -1.9213,1.336385 -2.67462,-2.412504 1.16288,-3.399437 2.72265,-2.491309 z"
       id="path877" />
    <path
       style="display:inline;fill:#4e2921;fill-opacity:1;stroke:#eb7b51;stroke-width:0.3;stroke-linecap:butt;stroke-linejoin:miter;stroke-opacity:1;stroke-miterlimit:4;stroke-dasharray:none"
       d="m 107.03568,95.080339 6.1836,0.405331 -2.13114,-1.875694 -2.13116,0.133978 -1.9213,1.336385"
       id="path879" />
    <path
       style="display:inline;fill:#c09386;fill-opacity:1;stroke:#eb7b51;stroke-width:0.3;stroke-linecap:butt;stroke-linejoin:miter;stroke-opacity:1;stroke-miterlimit:4;stroke-dasharray:none"
       d="m 118.47614,93.074058 2.16527,1.019348 1.51175,-1.864211 -1.0466,-2.851143 -4.23916,-1.563048 1.60874,5.259054"
       id="path881" />
    <path
       style="display:inline;fill:#bb907d;fill-opacity:1;stroke:#eb7b51;stroke-width:0.3;stroke-linecap:butt;stroke-linejoin:miter;stroke-opacity:1;stroke-miterlimit:4;stroke-dasharray:none"
       d="m 121.10656,89.378052 -4.23916,-1.563048 -1.2328,-10.282396 1.30734,-1.972507 4.16462,13.817951"
       id="path885" />
    <path
       style="display:inline;fill:#8c6056;fill-opacity:1;stroke:#eb7b51;stroke-width:0.3;stroke-linecap:butt;stroke-linejoin:miter;stroke-opacity:1;stroke-miterlimit:4;stroke-dasharray:none"
       d="m 115.77668,95.48567 4.86473,-1.392264 -2.16527,-1.019348 -2.69946,2.411612"
       id="path887" />
    <path
       style="display:inline;fill:#ad7569;fill-opacity:1;stroke:#eb7b51;stroke-width:0.3;stroke-linecap:butt;stroke-linejoin:miter;stroke-opacity:1;stroke-miterlimit:4;stroke-dasharray:none"
       d="m 122.15316,92.229195 6.74471,3.728422 1.74433,3.61876 3.25607,-5.373309 -5.34926,-3.289782 -7.44245,-1.535234 1.0466,2.851143"
       id="path889" />
    <path
       style="display:inline;fill:#d9b3ab;fill-opacity:1;stroke:#eb7b51;stroke-width:0.3;stroke-linecap:butt;stroke-linejoin:miter;stroke-opacity:1;stroke-miterlimit:4;stroke-dasharray:none"
       d="m 121.10656,89.378052 7.44245,1.535234 5.34926,3.289782 2.79091,-1.973873 -9.53564,-4.167053 -6.78477,-1.132028 0.73779,2.447938"
       id="path891" />
    <path
       style="display:inline;fill:#0f0f11;fill-opacity:1;stroke:#eb7b51;stroke-width:0.3;stroke-linecap:butt;stroke-linejoin:miter;stroke-opacity:1;stroke-miterlimit:4;stroke-dasharray:none"
       d="m 95.563615,49.057298 -3.173754,3.273416 0.148772,3.974866 -6.099563,6.967704 1.785234,2.197859 0.942213,2.992841 2.330722,3.647521 -0.74384,5.658331 -5.306123,2.852555 -5.119947,0.139812 -3.646793,-1.32266 -2.664971,-3.703443 7.153338,-7.539164 -1.122092,-9.919949 7.01307,-5.026112 2.664971,-12.962072 9.116991,-5.819706 13.605367,1.454927 2.76116,7.846093 -5.96724,0.267957 -6.09026,-1.247034 -3.719244,2.946076 -3.02498,-0.187053 -0.843031,3.507235"
       id="path2171" />
    <path
       style="display:inline;fill:#161616;fill-opacity:1;stroke:#eb7b51;stroke-width:0.6;stroke-linecap:butt;stroke-linejoin:miter;stroke-opacity:1;stroke-miterlimit:4;stroke-dasharray:none"
       d="m 98.841843,34.469097 -9.116991,5.819706 -2.664971,12.962072 -7.01307,5.026112 1.122092,9.919949 -7.153338,7.539164 -4.909154,10.84581 -5.470201,2.116261 -0.280518,-12.697537 -8.275421,-5.555174 -15.849545,2.64532 5.610459,-11.639414 6.872811,-2.513049 3.787063,-5.026112 -2.103926,-4.100248 9.116995,-4.893842 1.122082,-4.893845 5.750729,0.396798 2.945488,-6.216503 4.628627,0.132265 6.732551,-5.555172 5.049414,0.925863 9.678038,-4.364781 10.800133,2.909853 3.22602,7.671431 z"
       id="path2173" />
    <path
       style="fill:#cd9985;fill-opacity:1;stroke:#eb7b51;stroke-width:0.3;stroke-linecap:butt;stroke-linejoin:miter;stroke-opacity:1;stroke-miterlimit:4;stroke-dasharray:none"
       d="m 118.66529,81.278065 1.70348,5.652049 6.78477,1.132028 9.53564,4.167053 2.44204,-3.50909 -0.69772,-5.482971 -14.18715,-0.219316 z"
       id="path893" />
    <path
       style="fill:#be9f8b;fill-opacity:1;stroke:#eb7b51;stroke-width:0.3;stroke-linecap:butt;stroke-linejoin:miter;stroke-opacity:1;stroke-miterlimit:4;stroke-dasharray:none"
       d="m 117.58928,77.707929 1.07601,3.570136 5.58106,1.739753 14.18715,0.219316 -0.0761,-3.204056 -14.11107,2.98474 z"
       id="path895" />
    <path
       style="fill:#c09c89;fill-opacity:1;stroke:#eb7b51;stroke-width:0.3;stroke-linecap:butt;stroke-linejoin:miter;stroke-opacity:1;stroke-miterlimit:4;stroke-dasharray:none"
       d="m 117.58928,77.707929 6.65707,5.309889 14.11108,-2.98474 -0.57559,-4.342289 -12.16978,3.954585 -8.02278,-1.937445"
       id="path897" />
    <path
       style="fill:#95746b;fill-opacity:1;stroke:#eb7b51;stroke-width:0.3;stroke-linecap:butt;stroke-linejoin:miter;stroke-opacity:1;stroke-miterlimit:4;stroke-dasharray:none"
       d="m 118.42412,77.909539 7.18794,1.735835 7.55001,-2.453381 -2.04249,-0.170358 -5.43009,1.636706 -5.05816,-1.028791 -2.40527,0.232157"
       id="path901" />
    <path
       style="fill:#99776e;fill-opacity:1;stroke:#eb7b51;stroke-width:0.3;stroke-linecap:butt;stroke-linejoin:miter;stroke-opacity:1;stroke-miterlimit:4;stroke-dasharray:none"
       d="m 118.72992,77.813075 2.3477,-2.007278 2.82663,-1.356139 h 2.10757 l 1.93401,0.491018 2.18196,0.888498 0.99179,1.192461 2.04249,0.170358 -1.4722,-2.812474 -2.75225,-1.402893 -3.868,-0.374102 -2.82664,0.584534 -1.56207,1.169076 -1.36372,1.192461 z"
       id="path903" />
    <path
       style="fill:#3c302a;fill-opacity:1;stroke:#eb7b51;stroke-width:0.3;stroke-linecap:butt;stroke-linejoin:miter;stroke-opacity:1;stroke-miterlimit:4;stroke-dasharray:none"
       d="m 122.06418,75.332476 -0.0195,1.08124 0.22799,1.549661 1.97441,0.401576 1.44247,0.293388 1.66361,-0.501438 0.34478,-1.18203 0.24794,-2.034197 -1.93401,-0.491018 h -2.10756 z"
       id="path1857" />
    <path
       style="fill:#111418;fill-opacity:1;stroke:none;stroke-width:0.3;stroke-linecap:butt;stroke-linejoin:miter;stroke-opacity:1;stroke-miterlimit:4;stroke-dasharray:none"
       d="m 123.6811,76.787818 1.23975,0.701442 1.48769,-0.701442 0.0992,-1.215838 c 0,0 -0.27275,-1.122322 -1.4381,-1.122322 -1.16537,0 -1.88442,2.33816 -1.38852,2.33816 z"
       id="path1863" />
    <path
       style="fill:#9a989b;fill-opacity:1;stroke:#eb7b51;stroke-width:0.3;stroke-linecap:butt;stroke-linejoin:miter;stroke-opacity:1;stroke-miterlimit:4;stroke-dasharray:none"
       d="m 122.06418,75.332476 0.20844,2.630901 -1.64129,-0.333827 -1.90141,0.183525 2.3477,-2.007278 z"
       id="path1865" />
    <path
       style="fill:#808289;fill-opacity:1;stroke:#eb7b51;stroke-width:0.3;stroke-linecap:butt;stroke-linejoin:miter;stroke-opacity:1;stroke-miterlimit:4;stroke-dasharray:none"
       d="m 127.94583,74.940676 -0.24795,2.034197 -0.34477,1.18203 3.76647,-1.135268 -0.99179,-1.192461 z"
       id="path1867" />
    <path
       style="fill:#967669;fill-opacity:1;stroke:#eb7b51;stroke-width:0.3;stroke-linecap:butt;stroke-linejoin:miter;stroke-opacity:1;stroke-miterlimit:4;stroke-dasharray:none"
       d="m 116.94194,75.560101 0.64734,2.147828 1.14064,0.105146 0.58727,-2.26448 2.92579,-2.361537 -3.17375,1.215846 -2.12729,1.157197"
       id="path2007" />
    <path
       style="fill:#ac8b82;fill-opacity:1;stroke:#eb7b51;stroke-width:0.3;stroke-linecap:butt;stroke-linejoin:miter;stroke-opacity:1;stroke-miterlimit:4;stroke-dasharray:none"
       d="m 119.89691,71.101654 -2.95497,4.458447 5.30104,-2.373043 2.82664,-0.584534 3.868,0.374102 4.21515,-2.548592 -2.82663,-1.58994 -5.50447,0.794966 -4.92476,1.468594"
       id="path2009" />
    <path
       style="fill:#a78377;fill-opacity:1;stroke:#eb7b51;stroke-width:0.3;stroke-linecap:butt;stroke-linejoin:miter;stroke-opacity:1;stroke-miterlimit:4;stroke-dasharray:none"
       d="m 128.93762,72.976626 2.75225,1.402893 1.95879,1.332746 1.20681,0.929456 2.92637,-0.950932 -0.5131,-2.129621 -2.28114,-0.607927 -0.69427,-2.571969 -1.14056,0.04671 z"
       id="path2011" />
    <path
       style="fill:#ab8c77;fill-opacity:1;stroke:#eb7b51;stroke-width:0.3;stroke-linecap:butt;stroke-linejoin:miter;stroke-opacity:1;stroke-miterlimit:4;stroke-dasharray:none"
       d="m 131.68987,74.379519 1.4722,2.812474 1.6934,-0.550272 -1.85698,-1.371835 z"
       id="path2013" />
    <path
       style="fill:#bd9784;fill-opacity:1;stroke:#eb7b51;stroke-width:0.3;stroke-linecap:butt;stroke-linejoin:miter;stroke-opacity:1;stroke-miterlimit:4;stroke-dasharray:none"
       d="m 124.44338,65.876505 2.35801,-4.564253 3.92148,2.989815 1.23974,0.37411 -0.84303,1.449655 -6.6762,-0.249327"
       id="path2015" />
    <path
       style="fill:#805c4e;fill-opacity:1;stroke:#eb7b51;stroke-width:0.3;stroke-linecap:butt;stroke-linejoin:miter;stroke-opacity:1;stroke-miterlimit:4;stroke-dasharray:none"
       d="m 128.56967,57.889553 -1.76828,3.422699 3.92148,2.989815 1.23974,0.37411 3.86801,-1.075553 -3.76882,-3.507236 -2.08278,-0.748212 0.79344,-2.61873 -0.93016,-1.300233 -1.23357,2.387753"
       id="path2017" />
    <path
       style="fill:#987764;fill-opacity:1;stroke:#eb7b51;stroke-width:0.3;stroke-linecap:butt;stroke-linejoin:miter;stroke-opacity:1;stroke-miterlimit:4;stroke-dasharray:none"
       d="m 135.83062,63.600624 -3.86801,1.075553 -0.84303,1.449655 3.66966,2.525207 0.79343,1.683471 1.78524,-0.561157 0.4959,-2.151105 -2.03319,-4.021624"
       id="path2019" />
    <path
       style="fill:#2e2528;fill-opacity:1;stroke:#eb7b51;stroke-width:0.3;stroke-linecap:butt;stroke-linejoin:miter;stroke-opacity:1;stroke-miterlimit:4;stroke-dasharray:none"
       d="m 120.6073,67.618221 -0.71039,3.483433 8.91976,-2.045563 4.2182,-1.612293 -1.91529,-1.317966 -6.6762,-0.249327 -3.83608,1.741716"
       id="path2021" />
    <path
       style="fill:#1d1717;fill-opacity:1;stroke:#eb7b51;stroke-width:0.3;stroke-linecap:butt;stroke-linejoin:miter;stroke-opacity:1;stroke-miterlimit:4;stroke-dasharray:none"
       d="m 128.81667,69.056091 1.50947,-0.217997 2.82663,1.58994 1.14056,-0.04671 0.45717,1.69362 0.83217,-1.740389 -0.79343,-1.683472 -1.75437,-1.207233 -4.2182,1.612285"
       id="path2023" />
    <path
       style="fill:#896557;fill-opacity:1;stroke:#eb7b51;stroke-width:0.3;stroke-linecap:butt;stroke-linejoin:miter;stroke-opacity:1;stroke-miterlimit:4;stroke-dasharray:none"
       d="m 107.23732,72.164016 -0.75122,3.439813 0.56104,2.314656 -5.32994,6.811698 3.92733,2.116261 3.00914,-4.950048 0.58746,-7.043355 z"
       id="path2025" />
    <path
       style="fill:#c19789;fill-opacity:1;stroke:#eb7b51;stroke-width:0.3;stroke-linecap:butt;stroke-linejoin:miter;stroke-opacity:1;stroke-miterlimit:4;stroke-dasharray:none"
       d="m 108.65367,81.896396 -3.00914,4.950048 -9.117002,3.240515 1.472743,3.571191 7.523669,-4.389752 2.72265,-2.491309 0.40708,-4.880693"
       id="path2027" />
    <path
       style="fill:#c69584;fill-opacity:1;stroke:#eb7b51;stroke-width:0.3;stroke-linecap:butt;stroke-linejoin:miter;stroke-opacity:1;stroke-miterlimit:4;stroke-dasharray:none"
       d="m 101.7172,84.730183 -7.64425,0.991999 -7.574115,-2.446914 0.420787,6.084233 9.607906,0.727458 9.117002,-3.240515 -3.92733,-2.116261"
       id="path2029" />
    <path
       style="fill:#b08074;fill-opacity:1;stroke:#eb7b51;stroke-width:0.3;stroke-linecap:butt;stroke-linejoin:miter;stroke-opacity:1;stroke-miterlimit:4;stroke-dasharray:none"
       d="m 86.919622,89.359501 0.07016,7.803697 2.875365,3.042112 8.065035,-1.190385 6.430918,-6.34709 1.16288,-3.399437 -7.523674,4.389752 -1.472742,-3.571191 -9.607906,-0.727458"
       id="path2031" />
    <path
       style="fill:#d6bba1;fill-opacity:1;stroke:#eb7b51;stroke-width:0.3;stroke-linecap:butt;stroke-linejoin:miter;stroke-opacity:1;stroke-miterlimit:4;stroke-dasharray:none"
       d="m 93.978881,99.598125 -1.308541,3.450905 1.683139,5.68745 3.716926,-3.30665 -2.244182,-3.57119 2.103923,-2.843715 z"
       id="path2033" />
    <path
       style="fill:#a37867;fill-opacity:1;stroke:#eb7b51;stroke-width:0.3;stroke-linecap:butt;stroke-linejoin:miter;stroke-opacity:1;stroke-miterlimit:4;stroke-dasharray:none"
       d="m 97.930146,99.014925 6.430914,-6.34709 2.67462,2.412504 6.1836,0.405331 -15.289134,3.529255"
       id="path2035" />
    <path
       style="fill:#a7816c;fill-opacity:1;stroke:#eb7b51;stroke-width:0.3;stroke-linecap:butt;stroke-linejoin:miter;stroke-opacity:1;stroke-miterlimit:4;stroke-dasharray:none"
       d="m 97.930146,99.014925 -2.103923,2.843715 0.876023,1.39403 14.202074,-3.378017 3.08577,0.595197 -1.75328,-1.521068 0.98247,-3.463112 z"
       id="path2037" />
    <path
       style="fill:#cca995;fill-opacity:1;stroke:#eb7b51;stroke-width:0.3;stroke-linecap:butt;stroke-linejoin:miter;stroke-opacity:1;stroke-miterlimit:4;stroke-dasharray:none"
       d="m 113.21928,95.48567 -0.98247,3.463112 1.75328,1.521068 2.94548,-0.992001 -1.19222,-2.314651 0.0333,-1.677528 z"
       id="path2039" />
    <path
       style="fill:#caa491;fill-opacity:1;stroke:#eb7b51;stroke-width:0.3;stroke-linecap:butt;stroke-linejoin:miter;stroke-opacity:1;stroke-miterlimit:4;stroke-dasharray:none"
       d="m 115.77668,95.48567 -0.0333,1.677528 1.19221,2.314651 1.89354,0.0661 2.80523,0.462941 4.27796,1.12426 2.98558,-5.173568 -6.74472,-3.728422 -1.51175,1.864211 -4.86473,1.392264"
       id="path2043" />
    <path
       style="fill:#be9b88;fill-opacity:1;stroke:#eb7b51;stroke-width:0.3;stroke-linecap:butt;stroke-linejoin:miter;stroke-opacity:1;stroke-miterlimit:4;stroke-dasharray:none"
       d="m 128.89787,95.957617 -2.98557,5.173563 2.38445,-0.85973 -0.28052,3.96798 2.62597,-4.663053 z"
       id="path2045" />
    <path
       style="fill:#d0bfaf;fill-opacity:1;stroke:#eb7b51;stroke-width:0.3;stroke-linecap:butt;stroke-linejoin:miter;stroke-opacity:1;stroke-miterlimit:4;stroke-dasharray:none"
       d="m 125.9123,101.13118 2.38445,-0.85973 -0.28052,3.96798 -7.85465,6.34877 -6.10137,-0.33066 5.11955,-1.25654 3.50653,-2.44692 3.08575,-3.90184 0.14026,-1.52106"
       id="path2047" />
    <path
       style="fill:#caa88f;fill-opacity:1;stroke:#eb7b51;stroke-width:0.3;stroke-linecap:butt;stroke-linejoin:miter;stroke-opacity:1;stroke-miterlimit:4;stroke-dasharray:none"
       d="m 114.06021,110.25754 -10.0287,-2.7776 -3.36627,-2.71145 -1.999364,-1.98287 -1.96363,0.46705 1.368159,2.17716 -1.807001,1.60753 12.326616,4.2783 z"
       id="path2049" />
    <path
       style="fill:#8a6656;fill-opacity:1;stroke:#eb7b51;stroke-width:0.3;stroke-linecap:butt;stroke-linejoin:miter;stroke-opacity:1;stroke-miterlimit:4;stroke-dasharray:none"
       d="m 93.978881,99.598125 -1.308541,3.450905 1.683139,5.68745 -7.433857,-0.66134 0.140259,-4.69544 -3.787053,-4.100249 0.490912,-2.380786 3.212295,-1.26146 0.0137,1.525993 2.875354,3.042112 4.11377,-0.607185"
       id="path2051" />
    <path
       style="fill:#311f1b;fill-opacity:1;stroke:#eb7b51;stroke-width:0.3;stroke-linecap:butt;stroke-linejoin:miter;stroke-opacity:1;stroke-miterlimit:4;stroke-dasharray:none"
       d="m 86.919622,108.07514 0.841564,5.02611 4.348109,3.37279 4.207839,2.77758 2.875361,1.45493 -2.805226,-3.70344 -5.470201,-3.5712 -1.17106,-5.10533 -2.826386,-0.25144"
       id="path2053" />
    <path
       style="fill:#957463;fill-opacity:1;stroke:#eb7b51;stroke-width:0.3;stroke-linecap:butt;stroke-linejoin:miter;stroke-opacity:1;stroke-miterlimit:4;stroke-dasharray:none"
       d="m 86.919622,108.07514 2.826386,0.25144 1.17106,5.10533 5.470201,3.5712 2.805226,3.70344 -0.280529,-4.23251 -2.24417,-2.84373 -0.404392,-6.59295 -1.909925,1.69912 -4.607471,-0.4099 -2.826386,-0.25144"
       id="path2055" />
    <path
       style="fill:#563b30;fill-opacity:1;stroke:#eb7b51;stroke-width:0.3;stroke-linecap:butt;stroke-linejoin:miter;stroke-opacity:1;stroke-miterlimit:4;stroke-dasharray:none"
       d="m 99.192495,120.70655 -0.280529,-4.23251 7.714384,5.6213 7.01309,1.71946 h 1.96365 l -2.24418,0.66133 -5.11954,-0.19839 -9.046875,-3.57119"
       id="path2057" />
    <path
       style="fill:#7d6559;fill-opacity:1;stroke:#eb7b51;stroke-width:0.3;stroke-linecap:butt;stroke-linejoin:miter;stroke-opacity:1;stroke-miterlimit:4;stroke-dasharray:none"
       d="m 113.35891,124.47613 4.90915,-0.66133 11.43131,-7.14236 -11.92223,6.54716 -4.41823,1.25653"
       id="path2059" />
    <path
       style="fill:#c39f87;fill-opacity:1;stroke:#eb7b51;stroke-width:0.3;stroke-linecap:butt;stroke-linejoin:miter;stroke-opacity:1;stroke-miterlimit:4;stroke-dasharray:none"
       d="m 96.263404,107.03736 0.404392,6.59295 2.24417,2.84373 -2.321757,-4.1086 3.740611,-3.91636 -4.067416,-1.41172"
       id="path2061" />
    <path
       style="fill:#b28e76;fill-opacity:1;stroke:#eb7b51;stroke-width:0.3;stroke-linecap:butt;stroke-linejoin:miter;stroke-opacity:1;stroke-miterlimit:4;stroke-dasharray:none"
       d="m 100.33082,108.44908 -3.740611,3.91636 2.321757,4.1086 7.714384,5.6213 4.30928,1.05654 -8.72751,-7.47144 6.10137,-2.24853 0.28053,-2.11625 -8.2592,-2.86658"
       id="path2063" />
    <path
       style="fill:#d9c3b5;fill-opacity:1;stroke:#eb7b51;stroke-width:0.3;stroke-linecap:butt;stroke-linejoin:miter;stroke-opacity:1;stroke-miterlimit:4;stroke-dasharray:none"
       d="m 108.59002,111.31566 -0.28053,2.11625 5.25981,1.1904 h 2.24418 l 0.0702,1.5872 -3.15588,2.57918 3.57666,1.52107 2.94549,-2.31467 -1.75326,-1.25653 0.42078,-2.71144 2.24418,-3.43892 -6.10137,-0.33066 -5.4702,1.05812"
       id="path2065" />
    <path
       style="fill:#d1b09f;fill-opacity:1;stroke:#eb7b51;stroke-width:0.3;stroke-linecap:butt;stroke-linejoin:miter;stroke-opacity:1;stroke-miterlimit:4;stroke-dasharray:none"
       d="m 108.30949,113.43191 -6.10137,2.24853 8.72751,7.47144 2.70381,0.66292 4.1377,-0.5952 v 0 l -1.47274,-2.90984 -3.57667,-1.52107 3.15589,-2.57918 -0.0702,-1.5872 -4.06907,-0.413 -3.43492,-0.7774"
       id="path2067" />
    <path
       style="fill:#cba98e;fill-opacity:1;stroke:#eb7b51;stroke-width:0.3;stroke-linecap:butt;stroke-linejoin:miter;stroke-opacity:1;stroke-miterlimit:4;stroke-dasharray:none"
       d="m 116.3044,120.30976 1.47274,2.90984 11.92223,-6.54716 -0.91171,-4.62931 3.29616,-7.8037 h -4.06759 l -7.85465,6.34877 4.0676,4.03411 -1.40263,3.57119 -6.52215,2.11626"
       id="path2069" />
    <path
       style="fill:#ddbea9;fill-opacity:1;stroke:#eb7b51;stroke-width:0.3;stroke-linecap:butt;stroke-linejoin:miter;stroke-opacity:1;stroke-miterlimit:4;stroke-dasharray:none"
       d="m 120.16158,110.5882 -2.24417,3.43892 -0.42079,2.71144 1.75327,1.25653 -2.94549,2.31467 6.52215,-2.11626 1.40263,-3.57119 -4.0676,-4.03411"
       id="path2071" />
    <path
       style="fill:#b99682;fill-opacity:1;stroke:#eb7b51;stroke-width:0.3;stroke-linecap:butt;stroke-linejoin:miter;stroke-opacity:1;stroke-miterlimit:4;stroke-dasharray:none"
       d="m 129.69937,116.67244 -0.91171,-4.62931 3.29616,-7.8037 0.70129,-5.290648 2.66497,-2.380779 -1.40261,7.737557 2.10393,2.90985 -1.89354,3.76959 -4.55849,5.68744"
       id="path2073" />
    <path
       style="fill:#9f7b6b;fill-opacity:1;stroke:#eb7b51;stroke-width:0.3;stroke-linecap:butt;stroke-linejoin:miter;stroke-opacity:1;stroke-miterlimit:4;stroke-dasharray:none"
       d="m 136.1514,107.21541 -2.10393,-2.90985 1.40261,-7.737557 1.2391,-4.338808 2.44204,-3.50909 -0.17459,10.956142 -2.80523,7.539163"
       id="path2075" />
    <path
       style="fill:#b89380;fill-opacity:1;stroke:#eb7b51;stroke-width:0.3;stroke-linecap:butt;stroke-linejoin:miter;stroke-opacity:1;stroke-miterlimit:4;stroke-dasharray:none"
       d="m 136.68918,92.229195 -1.2391,4.338808 -2.66497,2.380779 -0.70129,5.290648 h -4.06759 l 5.88204,-10.036362 z"
       id="path2077" />
    <path
       style="fill:#996d6a;fill-opacity:1;stroke:#eb7b51;stroke-width:0.3;stroke-linecap:butt;stroke-linejoin:miter;stroke-opacity:1;stroke-miterlimit:4;stroke-dasharray:none"
       d="m 98.665876,102.78562 7.118904,-0.13338 2.45459,-0.33066 5.18967,0.19839 0.56105,-2.05012 -3.08577,-0.595197 -12.238444,2.910967"
       id="path2079" />
    <path
       style="fill:#b98f8b;fill-opacity:1;stroke:#eb7b51;stroke-width:0.3;stroke-linecap:butt;stroke-linejoin:miter;stroke-opacity:1;stroke-miterlimit:4;stroke-dasharray:none"
       d="m 113.99009,100.46985 2.94548,-0.992001 8.97673,1.653331 -5.18967,0.46293 -2.5247,0.13226 -4.76889,0.7936 z"
       id="path2081" />
    <path
       style="fill:#b07a7a;fill-opacity:1;stroke:#eb7b51;stroke-width:0.3;stroke-linecap:butt;stroke-linejoin:miter;stroke-opacity:1;stroke-miterlimit:4;stroke-dasharray:none"
       d="m 125.9123,101.13118 -4.69875,3.63731 -6.45202,1.32267 6.24162,-0.66133 -5.61045,2.84372 1.48822,1.29168 2.29884,-0.56423 3.50653,-2.44692 3.08575,-3.90184 z"
       id="path2083" />
    <path
       style="fill:#c29494;fill-opacity:1;stroke:#eb7b51;stroke-width:0.3;stroke-linecap:butt;stroke-linejoin:miter;stroke-opacity:1;stroke-miterlimit:4;stroke-dasharray:none"
       d="m 98.665876,102.78562 5.365634,4.69432 10.0287,2.7776 2.82071,-0.69231 -1.48822,-1.29168 5.61045,-2.84372 -6.24162,0.66133 -5.89099,-0.0661 -5.04941,-0.59519 -5.155254,-2.64421"
       id="path2085" />
    <path
       style="fill:#c4c1ba;fill-opacity:1;stroke:#eb7b51;stroke-width:0.3;stroke-linecap:butt;stroke-linejoin:miter;stroke-opacity:1;stroke-miterlimit:4;stroke-dasharray:none"
       d="m 104.62321,102.674 0.37261,1.82996 1.35001,0.0662 0.87664,-0.66134 0.19286,0.61174 1.89352,0.24799 0.50845,-0.18187 0.28052,0.42987 h 3.31368 l 0.1578,-0.248 0.0702,0.248 3.26108,-0.21493 0.12273,-0.5952 0.35065,0.26453 1.96366,-0.36373 0.19287,-0.51253 0.24544,0.36373 1.08704,0.11573 0.36818,-0.76052 0.31559,0.0827 0.43832,-0.44639 0.57857,0.26452 0.36819,-0.59519 c 0,0 -0.063,-0.44123 -0.0876,-0.82666 -0.0246,-0.38544 -3.37409,-0.13278 -3.37409,-0.13278 l -6.04096,0.86024 -5.18967,-0.1984 z"
       id="path2089" />
    <path
       style="fill:#35201f;fill-opacity:1;stroke:#eb7b51;stroke-width:0.3;stroke-linecap:butt;stroke-linejoin:miter;stroke-opacity:1;stroke-miterlimit:4;stroke-dasharray:none"
       d="m 104.62321,102.674 -5.957334,0.11162 5.155254,2.64421 5.45365,0.59972 5.48675,0.0616 6.45202,-1.32267 4.69875,-3.63731 -4.69817,0.41909 1.58585,0.17565 0.13177,0.89325 -0.36819,0.59519 -0.57857,-0.26452 -0.43832,0.44639 -0.31559,-0.0827 -0.36818,0.76052 -1.08704,-0.11573 -0.24545,-0.36373 -0.19286,0.51253 -1.96367,0.36374 -0.35064,-0.26454 -0.12273,0.5952 -3.26107,0.21493 -0.0702,-0.248 -0.15779,0.248 h -3.31368 l -0.28052,-0.42987 -0.50846,0.18187 -1.89353,-0.24799 -0.19285,-0.61174 -0.87664,0.66134 -1.35002,-0.0662 -0.3726,-1.82996"
       id="path2091" />
    <path
       style="fill:#b59b8e;fill-opacity:1;stroke:#eb7b51;stroke-width:0.3;stroke-linecap:butt;stroke-linejoin:miter;stroke-opacity:1;stroke-miterlimit:4;stroke-dasharray:none"
       d="m 107.04714,77.918485 -5.32994,6.811698 -7.64425,0.991999 0.498862,-1.873141 4.314328,-0.794974 8.161,-5.135582"
       id="path2093" />
    <path
       style="fill:#9e7d6c;fill-opacity:1;stroke:#eb7b51;stroke-width:0.3;stroke-linecap:butt;stroke-linejoin:miter;stroke-opacity:1;stroke-miterlimit:4;stroke-dasharray:none"
       d="m 107.04714,77.918485 -8.161,5.135582 -6.992185,-0.607911 -3.620051,-2.805794 2.479495,-1.870526 4.36391,2.33816 6.992171,-0.701443 1.88442,-1.07556 3.05324,-0.412508"
       id="path2095" />
    <path
       style="fill:#987361;fill-opacity:1;stroke:#eb7b51;stroke-width:0.3;stroke-linecap:butt;stroke-linejoin:miter;stroke-opacity:1;stroke-miterlimit:4;stroke-dasharray:none"
       d="m 98.88614,83.054067 -4.314328,0.794974 -0.498862,1.873141 -7.574115,-2.446914 -1.051559,-2.652877 2.826628,-0.982029 3.620051,2.805794 z"
       id="path2097" />
    <path
       style="fill:#795b51;fill-opacity:1;stroke:#eb7b51;stroke-width:0.3;stroke-linecap:butt;stroke-linejoin:miter;stroke-opacity:1;stroke-miterlimit:4;stroke-dasharray:none"
       d="m 107.04714,77.918485 -1.51206,0.204287 -4.8637,-3.111949 -5.157356,0.748212 -3.525242,2.67272 -1.235383,-0.661919 0.247944,-1.870516 3.173753,-1.823764 5.752424,-0.701443 5.71185,4.734569"
       id="path2103" />
    <path
       style="fill:#9f8b82;fill-opacity:1;stroke:#eb7b51;stroke-width:0.3;stroke-linecap:butt;stroke-linejoin:miter;stroke-opacity:1;stroke-miterlimit:4;stroke-dasharray:none"
       d="m 99.92752,73.374113 2.92922,2.428037 2.78263,2.306532 1.40777,-0.190197 -3.59873,-3.749406 -1.83482,-0.935259 z"
       id="path2105" />
    <path
       style="fill:#bda595;fill-opacity:1;stroke:#eb7b51;stroke-width:0.3;stroke-linecap:butt;stroke-linejoin:miter;stroke-opacity:1;stroke-miterlimit:4;stroke-dasharray:none"
       d="m 91.988782,78.431755 3.128527,1.676241 6.992171,-0.701443 3.4256,-1.283781 -3.8719,0.208221 -1.884431,0.327348 -3.074569,0.233809 -2.529084,-0.467626 -2.186314,0.007"
       id="path2107" />
    <path
       style="fill:#251a14;fill-opacity:1;stroke:#eb7b51;stroke-width:0.3;stroke-linecap:butt;stroke-linejoin:miter;stroke-opacity:1;stroke-miterlimit:4;stroke-dasharray:none"
       d="m 95.514024,75.759035 -0.247953,1.449647 1.438109,1.683468 3.074569,-0.233809 1.140581,-1.262604 -0.0496,-0.841736 -0.19836,-1.543178 -5.157356,0.748212"
       id="path2109" />
    <path
       style="fill:#090e14;fill-opacity:1;stroke:none;stroke-width:0.3;stroke-linecap:butt;stroke-linejoin:miter;stroke-opacity:1;stroke-miterlimit:4;stroke-dasharray:none"
       d="m 97.176237,76.132896 1.437683,-0.429864 1.49028,-0.181864 0.0876,1.124262 -0.911706,1.124258 -0.613646,0.347195 -0.71884,-0.03305 -0.683774,-0.529064 -0.280516,-0.562135 z"
       id="path2113" />
    <path
       style="fill:#52555e;fill-opacity:1;stroke:#eb7b51;stroke-width:0.3;stroke-linecap:butt;stroke-linejoin:miter;stroke-opacity:1;stroke-miterlimit:4;stroke-dasharray:none"
       d="m 95.514024,75.759035 -0.247953,1.449647 1.438109,1.683468 -2.529084,-0.467626 -2.186314,0.007 3.525242,-2.672728"
       id="path2115" />
    <path
       style="fill:#bdc3c3;fill-opacity:1;stroke:#eb7b51;stroke-width:0.3;stroke-linecap:butt;stroke-linejoin:miter;stroke-opacity:1;stroke-miterlimit:4;stroke-dasharray:none"
       d="m 100.67138,75.010823 0.24795,2.384914 -1.140581,1.262604 1.884431,-0.327348 3.4916,-0.156835 0.48459,-0.06548 z"
       id="path2117" />
    <path
       style="fill:#856858;fill-opacity:1;stroke:#eb7b51;stroke-width:0.3;stroke-linecap:butt;stroke-linejoin:miter;stroke-opacity:1;stroke-miterlimit:4;stroke-dasharray:none"
       d="m 107.23732,72.164016 -0.75122,3.439813 0.56104,2.314656 -5.43355,-4.684665 -1.73565,-2.89931 4.71104,1.122315 0.0914,-2.27623 z"
       id="path2119" />
    <path
       style="fill:#86645a;fill-opacity:1;stroke:#eb7b51;stroke-width:0.3;stroke-linecap:butt;stroke-linejoin:miter;stroke-opacity:1;stroke-miterlimit:4;stroke-dasharray:none"
       d="m 91.001343,75.89932 3.173753,-1.823764 5.752424,-0.701443 -2.777033,-2.852548 -3.818423,-0.935267 -2.826618,0.982029 0.991793,1.543178 -0.495896,3.787815"
       id="path2121" />
    <path
       style="fill:#a58b7c;fill-opacity:1;stroke:#eb7b51;stroke-width:0.3;stroke-linecap:butt;stroke-linejoin:miter;stroke-opacity:1;stroke-miterlimit:4;stroke-dasharray:none"
       d="m 97.150487,70.521565 2.727453,-0.187055 1.73565,2.89931 -1.68607,0.140293 -2.777033,-2.852548"
       id="path2123" />
    <path
       style="fill:#906e62;fill-opacity:1;stroke:#eb7b51;stroke-width:0.3;stroke-linecap:butt;stroke-linejoin:miter;stroke-opacity:1;stroke-miterlimit:4;stroke-dasharray:none"
       d="m 100.29028,61.99114 -0.11481,2.451212 -4.859799,0.982029 -1.140575,1.262608 2.429903,0.654688 3.520881,-0.187055 1.43811,-2.291398 1.86457,2.452004 0.6978,-3.180439 -3.83608,-2.143649"
       id="path2125" />
    <path
       style="fill:#9b7665;fill-opacity:1;stroke:#eb7b51;stroke-width:0.3;stroke-linecap:butt;stroke-linejoin:miter;stroke-opacity:1;stroke-miterlimit:4;stroke-dasharray:none"
       d="m 95.315671,49.150824 -2.92581,3.17989 0.148772,3.974866 -3.967194,3.787808 -2.132369,3.179896 1.785234,2.197859 0.942213,2.992841 -0.148771,0.607919 0.396715,0.327348 2.92581,-1.63671 -1.686064,-2.899317 0.991804,-2.759024 2.529085,-3.086357 0.843031,-1.870529 -0.148771,-1.262605 -0.04956,-1.075551 1.636473,0.561158 -0.347136,-3.133129 -0.545487,-3.179889"
       id="path2127" />
    <path
       style="fill:#161513;fill-opacity:1;stroke:#eb7b51;stroke-width:0.3;stroke-linecap:butt;stroke-linejoin:miter;stroke-opacity:1;stroke-miterlimit:4;stroke-dasharray:none"
       d="m 95.563615,49.057298 0.892622,6.313018 -1.636472,-0.561158 0.198362,2.338156 -1.694779,2.909957 -1.677337,2.046929 -0.991804,2.759024 1.686064,2.899317 1.834825,-1.075552 1.140575,-1.262608 4.859799,-0.982029 0.11481,-2.451212 0.85246,-2.813537 2.55738,-1.339784 5.11478,-1.741715 1.56285,-4.153323 -1.84701,-4.823212 0.71039,-3.081495 -6.09026,-1.247034 -3.719244,2.946076 -3.02498,-0.187053 -0.843031,3.507235"
       id="path2129" />
    <path
       style="fill:#111112;fill-opacity:1;stroke:#eb7b51;stroke-width:0.3;stroke-linecap:butt;stroke-linejoin:miter;stroke-opacity:1;stroke-miterlimit:4;stroke-dasharray:none"
       d="m 92.340271,67.762541 0.991793,1.823757 3.818423,0.935267 2.727453,-0.187055 3.55062,-3.019282 -1.86457,-2.452004 -1.43811,2.291398 -3.520881,0.187055 -2.851389,-0.40762 0.421486,-0.247068 -1.834825,1.075552"
       id="path2131" />
    <path
       style="fill:#1c1817;fill-opacity:1;stroke:#eb7b51;stroke-width:0.3;stroke-linecap:butt;stroke-linejoin:miter;stroke-opacity:1;stroke-miterlimit:4;stroke-dasharray:none"
       d="m 89.414461,69.399251 2.92581,-1.63671 0.991793,1.823757 -2.826618,0.982029 -1.090985,-1.169076"
       id="path2133" />
    <path
       style="fill:#3d2b25;fill-opacity:1;stroke:#eb7b51;stroke-width:0.3;stroke-linecap:butt;stroke-linejoin:miter;stroke-opacity:1;stroke-miterlimit:4;stroke-dasharray:none"
       d="m 93.75361,66.934057 2.851389,0.40762 -2.429903,-0.654688 -0.421486,0.247068"
       id="path2135" />
    <path
       style="fill:#3a2f2d;fill-opacity:1;stroke:#eb7b51;stroke-width:0.3;stroke-linecap:butt;stroke-linejoin:miter;stroke-opacity:1;stroke-miterlimit:4;stroke-dasharray:none"
       d="m 99.87794,70.33451 4.71104,1.122315 0.0914,-2.27623 -1.40638,-1.160441 v 0 0 z"
       id="path2137" />
    <path
       style="fill:#191616;fill-opacity:1;stroke:#eb7b51;stroke-width:0.3;stroke-linecap:butt;stroke-linejoin:miter;stroke-opacity:1;stroke-miterlimit:4;stroke-dasharray:none"
       d="m 101.51248,69.22056 1.76142,-1.200406 v 0 l -1.57283,0.764048 0.44345,-0.377097 1.12938,-0.386951"
       id="path2139" />
    <path
       style="fill:#3b2720;fill-opacity:1;stroke:#eb7b51;stroke-width:0.3;stroke-linecap:butt;stroke-linejoin:miter;stroke-opacity:1;stroke-miterlimit:4;stroke-dasharray:none"
       d="m 90.206279,114.99789 -0.543865,7.47748 2.132369,3.97486 -0.09918,3.83458 -2.479504,0.8885 2.479504,1.73023 0.694259,2.94607 1.487701,0.88851 1.041384,-2.99284 -2.429903,-2.52521 1.586881,-1.87053 2.628256,-0.65468 -0.991793,-3.36694 6.645032,-0.79498 4.47176,-0.81187 -9.56857,-3.99205 -5.151314,-3.25498 z"
       id="path2141" />
    <path
       style="fill:#785b4d;fill-opacity:1;stroke:#eb7b51;stroke-width:0.3;stroke-linecap:butt;stroke-linejoin:miter;stroke-opacity:1;stroke-miterlimit:4;stroke-dasharray:none"
       d="m 106.82918,123.72107 1.41019,0.55667 5.11954,0.19839 -6.83593,3.14318 -3.27293,2.1511 1.43811,5.00366 -5.405306,2.24462 2.578676,2.61873 -1.14056,3.78781 2.72744,6.2195 -5.9012,-0.60792 -3.471286,-2.19787 -3.223354,-7.38857 3.024992,-2.71225 1.041384,-2.99284 -2.429903,-2.52521 1.586881,-1.87053 2.628256,-0.65468 -0.991793,-3.36694 z"
       id="path2145" />
    <path
       style="fill:#9b7e70;fill-opacity:1;stroke:#eb7b51;stroke-width:0.3;stroke-linecap:butt;stroke-linejoin:miter;stroke-opacity:1;stroke-miterlimit:4;stroke-dasharray:none"
       d="m 113.35891,124.47613 -3.76135,8.84827 -0.59508,10.662 4.81022,5.05041 -6.29792,-4.67632 -2.82662,-9.58642"
       id="path2147" />
    <path
       style="fill:#95786a;fill-opacity:1;stroke:#eb7b51;stroke-width:0.3;stroke-linecap:butt;stroke-linejoin:miter;stroke-opacity:1;stroke-miterlimit:4;stroke-dasharray:none"
       d="m 103.25005,129.77041 1.43811,5.00366 8.67075,-10.29794 -6.83593,3.14318 -3.27293,2.1511"
       id="path2149" />
    <path
       style="fill:#bca190;fill-opacity:1;stroke:#eb7b51;stroke-width:0.3;stroke-linecap:butt;stroke-linejoin:miter;stroke-opacity:1;stroke-miterlimit:4;stroke-dasharray:none"
       d="m 109.34085,137.92398 5.46364,-0.20384 3.02499,-5.23747 4.06638,-2.75902 0.4959,-7.85621 -4.1237,1.94736 -4.90915,0.66133 -3.76135,8.84827 -0.25657,4.59714"
       id="path2151" />
    <path
       style="fill:#a98e7d;fill-opacity:1;stroke:#eb7b51;stroke-width:0.3;stroke-linecap:butt;stroke-linejoin:miter;stroke-opacity:1;stroke-miterlimit:4;stroke-dasharray:none"
       d="m 99.282854,137.01869 5.405306,-2.24462 2.82662,9.58642 -3.81842,-2.94606 -2.97539,2.0108 1.14056,-3.78781 -2.578676,-2.61873"
       id="path2153" />
    <path
       style="fill:#000000;fill-opacity:0;stroke:#eb7b51;stroke-width:0.3;stroke-linecap:butt;stroke-linejoin:miter;stroke-opacity:1;stroke-miterlimit:4;stroke-dasharray:none"
       d="m 100.72097,143.42523 2.97539,-2.0108 10.11634,7.62238 2.08277,2.33815 -0.0496,0.56117 -5.00858,1.54318 -6.54587,-1.26261 -6.74423,-3.17989 5.9012,0.60792 z"
       id="path2157" />
    <path
       style="fill:#c9b09c;fill-opacity:1;stroke:#eb7b51;stroke-width:0.3;stroke-linecap:butt;stroke-linejoin:miter;stroke-opacity:1;stroke-miterlimit:4;stroke-dasharray:none"
       d="m 100.72097,143.42523 2.97539,-2.0108 10.11634,7.62238 -4.81022,-5.05041 0.33851,-6.06486 6.09556,-1.29574 0.72759,8.0209 3.4364,4.62931 -3.70507,2.09895 -3.46526,1.61356 -8.13878,-0.77182 -6.74422,-3.17989 5.9012,0.60792 -2.72744,-6.2195"
       id="path2159" />
    <path
       style="fill:#bda193;fill-opacity:1;stroke:#eb7b51;stroke-width:0.3;stroke-linecap:butt;stroke-linejoin:miter;stroke-opacity:1;stroke-miterlimit:4;stroke-dasharray:none"
       d="m 119.60054,149.27601 -3.4364,-4.62931 -0.72759,-8.0209 2.39293,-4.14313 4.06638,-2.75903 0.4959,-7.8562 5.44339,-4.03023 1.86422,-1.16477 0.88023,-1.09824 -0.24906,10.35686 -1.54288,3.90184 0.2104,7.4069 -1.47275,3.17439 -3.15588,5.35677 z"
       id="path2161" />
    <path
       style="fill:#c3c2b9;fill-opacity:1;stroke:#eb7b51;stroke-width:0.3;stroke-linecap:butt;stroke-linejoin:miter;stroke-opacity:1;stroke-miterlimit:4;stroke-dasharray:none"
       d="m 94.075924,146.83894 10.215506,5.37776 8.13878,0.77182 7.17033,-3.71251 4.76889,-3.50505 4.62863,-8.53116 1.613,3.63732 -3.50653,5.6213 -0.14026,3.30665 -8.41569,7.0101 -5.54032,2.05014 -6.03124,-0.52907 -6.59229,-2.11626 -2.735112,-1.25653 -3.573694,-8.12451"
       id="path2163" />
    <path
       style="fill:#bda193;fill-opacity:1;stroke:#eb7b51;stroke-width:0.9;stroke-linecap:butt;stroke-linejoin:miter;stroke-opacity:1;stroke-miterlimit:4;stroke-dasharray:none"
       d="m 97.649618,154.96345 11.922242,30.48732 4.69874,10.7797 10.55396,-44.64306 -6.27598,5.22776 -5.54032,2.05014 -6.03124,-0.52907 -6.59229,-2.11626 -2.735112,-1.25653"
       id="path2165" />
    <path
       style="fill:#3b2720;fill-opacity:1;stroke:#eb7b51;stroke-width:0.9;stroke-linecap:butt;stroke-linejoin:miter;stroke-opacity:1;stroke-miterlimit:4;stroke-dasharray:none"
       d="m 126.96427,149.80507 -2.13971,1.78234 -10.55396,44.64306 2.66497,8.59728 10.0287,-55.02268"
       id="path2169" />
    <path
       style="fill:#121214;fill-opacity:1;stroke:#eb7b51;stroke-width:0.3;stroke-linecap:butt;stroke-linejoin:miter;stroke-opacity:1;stroke-miterlimit:4;stroke-dasharray:none"
       d="m 109.22119,28.252593 5.98718,15.517524 8.0658,9.451379 6.56813,2.204717 0.13672,3.918963 5.8516,4.255448 2.03319,4.021624 -0.4959,2.151105 -1.78524,0.561157 -0.59507,2.618731 2.28114,0.607927 4.66145,-3.179896 0.19836,-3.553998 4.95899,-3.741045 -4.76063,-11.223145 -8.92619,-3.179892 2.38031,-7.669151 -9.12454,-6.172728 -4.959,-1.309368 2.9754,-4.115152 -4.76063,-3.179891 -5.55407,0.374104 -5.137,1.641587"
       id="path2175" />
    <path
       style="fill:#121212;fill-opacity:1;stroke:#eb7b51;stroke-width:0.3;stroke-linecap:butt;stroke-linejoin:miter;stroke-opacity:1;stroke-miterlimit:4;stroke-dasharray:none"
       d="m 119.91226,26.236903 4.76063,3.17989 -2.9754,4.115152 14.08354,7.482096 -2.38031,7.669151 8.92619,3.179892 4.76063,11.223145 -4.95899,3.741045 -0.19836,3.553998 -4.66145,3.179896 1.86248,15.158937 31.95785,10.093132 -2.57867,-12.15841 -6.94261,-3.366935 3.37212,-14.777146 4.56227,-7.856201 -5.15735,-5.237465 1.78524,-5.611573 -3.96719,-3.366945 -9.71963,-2.43168 -2.57867,-9.165569 -5.9508,-0.74821 -6.54587,-8.043253 -5.75244,2.244629 -6.34749,-4.863364 z"
       id="path2181" />
    <path
       style="fill:#181617;fill-opacity:1;stroke:#eb7b51;stroke-width:0.3;stroke-linecap:butt;stroke-linejoin:miter;stroke-opacity:1;stroke-miterlimit:4;stroke-dasharray:none"
       d="m 169.50218,60.654545 -7.93439,22.633347 7.60633,6.496469 1.91495,9.028876 -15.27371,34.604693 7.33931,2.61874 0.39672,-8.23031 7.93438,-5.23747 3.96719,-10.28788 1.78524,-12.345458 11.10815,-1.30937 -0.19835,-5.985674 -8.13276,1.683472 -0.39672,-5.985682 4.95899,-3.55399 -1.78523,-12.158399 -6.94259,3.366935 -6.34751,-15.338299"
       id="path2183" />
    <path
       style="fill:#0e0e10;fill-opacity:1;stroke:#eb7b51;stroke-width:0.3;stroke-linecap:butt;stroke-linejoin:miter;stroke-opacity:1;stroke-miterlimit:4;stroke-dasharray:none"
       d="m 168.20217,64.362895 -6.63438,18.924997 3.37212,-14.777146 z"
       id="path2185" />
    <path
       style="fill:#100e0f;fill-opacity:1;stroke:#eb7b51;stroke-width:0.3;stroke-linecap:butt;stroke-linejoin:miter;stroke-opacity:1;stroke-miterlimit:4;stroke-dasharray:none"
       d="m 139.13122,88.720105 -0.17459,10.956142 -2.80523,7.539163 -5.5718,8.35879 -0.24906,10.35686 -1.54288,3.90184 0.2104,7.4069 1.613,3.63732 3.58309,3.2028 5.35572,-0.37411 3.9672,-4.48925 5.3557,1.49642 -3.17375,3.17989 1.19016,4.30221 10.3147,-2.05759 2.9754,-5.05041 -1.94405,-6.80572 -2.41987,-0.86343 9.04692,-20.49704 6.22679,-14.107653 -4.87698,-1.540276 -14.09674,-4.452132 -12.98413,-4.100724"
       id="path2187" />
    <path
       style="fill:#0c0c0c;fill-opacity:1;stroke:#eb7b51;stroke-width:0.3;stroke-linecap:butt;stroke-linejoin:miter;stroke-opacity:1;stroke-miterlimit:4;stroke-dasharray:none"
       d="m 85.447276,80.622391 1.051559,2.652877 0.490912,13.88793 -3.226007,-0.264533 -0.490912,2.380786 3.787053,4.100249 0.701305,9.72155 2.445093,1.89664 -0.543865,7.47748 2.132369,3.97486 0.69426,4.76984 -3.272945,-0.0468 3.173763,4.67631 -1.537291,3.60076 -4.661453,-2.47844 -6.347507,4.3022 -7.537665,-1.30937 5.950792,-7.29503 -4.363919,-5.61154 7.736026,-7.8562 -3.57047,-8.60442 -3.173753,-10.47493 -2.18196,-4.863365 4.958989,-10.661986 7.785626,-3.974862"
       id="path2189" />
    <path
       style="fill:#19181a;fill-opacity:1;stroke:#eb7b51;stroke-width:0.3;stroke-linecap:butt;stroke-linejoin:miter;stroke-opacity:1;stroke-miterlimit:4;stroke-dasharray:none"
       d="m 85.447276,80.622391 -7.785626,3.974862 -4.958989,10.661986 8.926183,23.942711 -7.736026,7.8562 4.363919,5.61156 -5.950792,7.29504 -10.711426,-5.7986 -13.686808,-5.42453 1.983587,-14.02893 -6.54586,-16.83472 11.734833,-27.43251 8.275421,5.555174 0.280518,12.697537 5.470201,-2.116261 4.909154,-10.84581 2.664971,3.703443 11.593368,0.200819 z"
       id="path2191" />
    <path
       style="fill:#0d0b0c;fill-opacity:1;stroke:#eb7b51;stroke-width:0.7;stroke-linecap:butt;stroke-linejoin:miter;stroke-opacity:1;stroke-miterlimit:4;stroke-dasharray:none"
       d="m 55.080271,70.44546 -15.849545,2.64532 -1.83608,7.952483 -5.15735,0.374102 0.793431,7.669145 -4.958988,3.179896 4.562273,5.798619 -12.298299,3.741055 5.752429,7.10799 2.777037,3.74105 2.578676,7.10799 -1.388519,4.48925 -6.347507,-0.74821 9.322898,4.30221 5.355723,2.61873 2.18195,5.23747 1.586872,4.11516 -2.975391,2.24463 9.124545,5.98567 -0.595078,6.73389 11.306505,5.05041 9.719614,-2.43167 7.736036,-5.61158 3.372107,-10.47495 -11.657012,-3.53937 -20.278887,-8.99313 1.983587,-14.02893 -6.54586,-16.83472 11.734833,-27.43251"
       id="path2193" />
    <path
       style="fill:#192030;fill-opacity:1;stroke:#eb7b51;stroke-width:0.3;stroke-linecap:butt;stroke-linejoin:miter;stroke-opacity:1;stroke-miterlimit:4;stroke-dasharray:none"
       d="m 90.85257,139.45037 8.963133,21.05215 -16.599977,-6.32177 4.363919,15.52536 -18.447463,-4.67631 -0.396715,12.53251 -9.719614,-17.76999 9.719614,-2.43167 7.736036,-5.61158 3.372107,-10.47495 6.347507,-4.3022 4.661453,2.47845"
       id="path2195" />
    <path
       style="fill:#909295;fill-opacity:1;stroke:#eb7b51;stroke-width:0.9;stroke-linecap:butt;stroke-linejoin:miter;stroke-opacity:1;stroke-miterlimit:4;stroke-dasharray:none"
       d="m 68.735467,177.56231 0.396715,-12.53251 18.447463,4.67631 -4.363919,-15.52536 16.599977,6.32177 2.271017,5.80744 -18.870994,-12.12921 9.322907,17.76997 -13.88518,2.61875 -9.917986,2.99284"
       id="path2197" />
    <path
       style="fill:#d0d1ce;fill-opacity:1;stroke:#eb7b51;stroke-width:0.9;stroke-linecap:butt;stroke-linejoin:miter;stroke-opacity:1;stroke-miterlimit:4;stroke-dasharray:none"
       d="m 102.08672,166.30996 9.56074,23.90259 -18.315396,-5.91635 -0.396715,8.9785 -24.199882,-15.71239 23.803166,-5.61159 -9.322907,-17.76997 z"
       id="path2199" />
    <path
       style="fill:#282f42;fill-opacity:1;stroke:#eb7b51;stroke-width:0.9;stroke-linecap:butt;stroke-linejoin:miter;stroke-opacity:1;stroke-miterlimit:4;stroke-dasharray:none"
       d="m 68.735467,177.56231 41.060453,41.15152 9.12454,-6.92093 -7.273,-21.58035 -18.315396,-5.91635 -0.396715,8.9785 -24.199882,-15.71239"
       id="path2201" />
    <path
       style="fill:#909295;fill-opacity:1;stroke:#eb7b51;stroke-width:0.9;stroke-linecap:butt;stroke-linejoin:miter;stroke-opacity:1;stroke-miterlimit:4;stroke-dasharray:none"
       d="m 97.49762,195.89344 3.37212,-4.48925 13.82749,7.85759 -16.207816,-0.18846 z"
       id="path2203" />
    <path
       style="fill:#282f42;fill-opacity:1;stroke:#eb7b51;stroke-width:0.9;stroke-linecap:butt;stroke-linejoin:miter;stroke-opacity:1;stroke-miterlimit:4;stroke-dasharray:none"
       d="m 109.79592,218.71383 9.12454,-6.92093 13.48846,43.77027 -22.613,-36.84934"
       id="path2205" />
    <path
       style="fill:#1f263a;fill-opacity:1;stroke:#eb7b51;stroke-width:0.3;stroke-linecap:butt;stroke-linejoin:miter;stroke-opacity:1;stroke-miterlimit:4;stroke-dasharray:none"
       d="m 130.61106,140.87712 -3.50653,5.6213 -10.16896,58.32933 1.98489,6.96515 42.25062,-48.44657 -3.9672,-17.20884 -10.3147,2.05759 -3.37211,-8.97852 -3.9672,4.48925 z"
       id="path2207" />
    <path
       style="fill:#d0d1ce;fill-opacity:1;stroke:#eb7b51;stroke-width:0.9;stroke-linecap:butt;stroke-linejoin:miter;stroke-opacity:1;stroke-miterlimit:4;stroke-dasharray:none"
       d="m 133.9958,151.37496 -4.56228,9.53967 13.88519,0.74823 z"
       id="path2209" />
    <path
       style="fill:#909295;fill-opacity:1;stroke:#eb7b51;stroke-width:0.9;stroke-linecap:butt;stroke-linejoin:miter;stroke-opacity:1;stroke-miterlimit:4;stroke-dasharray:none"
       d="m 136.17775,169.14495 -9.12454,12.53251 18.72354,-0.67925 0.12062,-14.09789 z"
       id="path2211" />
    <path
       style="fill:#909295;fill-opacity:1;stroke:#eb7b51;stroke-width:0.9;stroke-linecap:butt;stroke-linejoin:miter;stroke-opacity:1;stroke-miterlimit:4;stroke-dasharray:none"
       d="m 48.701142,164.09453 20.034325,13.46778 6.54587,22.82038 9.124545,46.38902 3.768832,8.60441 -2.975391,13.46777 -24.596598,-78.93613 -12.298299,-26.93554"
       id="path2215" />
    <path
       style="fill:#1f2a40;fill-opacity:1;stroke:#eb7b51;stroke-width:0.9;stroke-linecap:butt;stroke-linejoin:miter;stroke-opacity:1;stroke-miterlimit:4;stroke-dasharray:none"
       d="m 68.735467,177.56231 14.32138,62.35094 3.387889,11.51324 1.729978,3.94963 6.942595,2.99283 10.116331,16.64767 -2.77704,12.71955 11.10815,3.36694 8.33111,-3.74104 -12.09994,-68.64824 z"
       id="path2219" />
    <path
       style="fill:#d0d1ce;fill-opacity:1;stroke:#eb7b51;stroke-width:0.9;stroke-linecap:butt;stroke-linejoin:miter;stroke-opacity:1;stroke-miterlimit:4;stroke-dasharray:none"
       d="m 77.900264,186.74742 11.06789,28.78652 1.983598,14.96421 4.363919,-9.53968 5.723139,-11.02118 -22.958104,-23.00901 z"
       id="path2221" />
    <path
       style="fill:#909295;fill-opacity:1;stroke:#eb7b51;stroke-width:0.9;stroke-linecap:butt;stroke-linejoin:miter;stroke-opacity:1;stroke-miterlimit:4;stroke-dasharray:none"
       d="m 101.06809,223.57721 2.18196,19.45345 8.13275,23.38154 0.19836,16.46061 2.38031,3.1799 -0.99179,-24.69091 z"
       id="path2223" />
    <path
       style="fill:#909295;fill-opacity:1;stroke:#eb7b51;stroke-width:0.9;stroke-linecap:butt;stroke-linejoin:miter;stroke-opacity:1;stroke-miterlimit:4;stroke-dasharray:none"
       d="m 88.174714,255.37612 -2.975391,13.46777 8.312592,3.9686 8.944685,14.92368 2.77704,-12.71955 -10.116331,-16.64767 -6.942595,-2.99283"
       id="path2225" />
    <path
       style="fill:#d0d1ce;fill-opacity:1;stroke:#eb7b51;stroke-width:0.9;stroke-linecap:butt;stroke-linejoin:miter;stroke-opacity:1;stroke-miterlimit:4;stroke-dasharray:none"
       d="m 92.109295,235.77799 9.541535,-7.00537 -4.492122,21.02557 -12.752826,-3.02648 -3.9253,-18.07472 z"
       id="path2227" />
    <path
       style="fill:#1f2a40;fill-opacity:1;stroke:#eb7b51;stroke-width:0.3;stroke-linecap:butt;stroke-linejoin:miter;stroke-opacity:1;stroke-miterlimit:4;stroke-dasharray:none"
       d="m 68.735467,177.56231 -9.719614,-17.76999 -15.229958,-14.74845 -4.606014,-3.02152 -9.627196,5.66646 -1.683137,41.53155 3.646793,5.55517 -3.646793,21.95616 6.171504,11.37488 -3.646803,24.07242"
       id="path2233" />
    <path
       style="fill:#2f3b51;fill-opacity:1;stroke:#eb7b51;stroke-width:0.3;stroke-linecap:butt;stroke-linejoin:miter;stroke-opacity:1;stroke-miterlimit:4;stroke-dasharray:none"
       d="m 60.602725,189.90776 -30.208476,62.27123 8.976746,19.31085 -0.280529,13.2266 7.293597,6.34876 -2.244184,7.67145 76.021701,0.52905 1.73428,-11.90363 -8.33111,3.74104 -11.10815,-3.36694 -8.944685,-14.92368 -8.312592,-3.9686 z"
       id="path2235" />
    <path
       style="fill:#d0d1ce;fill-opacity:1;stroke:#eb7b51;stroke-width:0.9;stroke-linecap:butt;stroke-linejoin:miter;stroke-opacity:1;stroke-miterlimit:4;stroke-dasharray:none"
       d="M 29.117865,158.41787 39.370995,170.70311 59.015853,159.79232 39.370995,180.4908 29.045457,160.20464"
       id="path2237" />
    <path
       style="fill:#d0d1ce;fill-opacity:1;stroke:#eb7b51;stroke-width:0.9;stroke-linecap:butt;stroke-linejoin:miter;stroke-opacity:1;stroke-miterlimit:4;stroke-dasharray:none"
       d="m 51.287572,209.10986 18.379894,34.33958 -6.452033,-20.36899 -3.366276,-11.63941 -8.0739,-3.33649"
       id="path2239" />
    <path
       style="fill:#909295;fill-opacity:1;stroke:#eb7b51;stroke-width:0.9;stroke-linecap:butt;stroke-linejoin:miter;stroke-opacity:1;stroke-miterlimit:4;stroke-dasharray:none"
       d="m 34.933723,242.8214 8.364583,3.8024 5.329932,-9.52314 -13.548881,5.42053"
       id="path2241" />
    <path
       style="fill:#909295;fill-opacity:1;stroke:#eb7b51;stroke-width:0.9;stroke-linecap:butt;stroke-linejoin:miter;stroke-opacity:1;stroke-miterlimit:4;stroke-dasharray:none"
       d="m 57.324455,248.21101 -17.95346,23.27883 -0.280529,13.2266 7.293597,6.34876 -7.089802,-15.95802 z"
       id="path2243" />
    <path
       style="fill:#909295;fill-opacity:1;stroke:#eb7b51;stroke-width:0.9;stroke-linecap:butt;stroke-linejoin:miter;stroke-opacity:1;stroke-miterlimit:4;stroke-dasharray:none"
       d="m 85.199323,268.84389 -7.764752,-24.91887 -17.585414,18.04166 19.348569,-12.3833 0.0078,21.64192 5.994085,-2.38141"
       id="path2245" />
    <path
       style="fill:#c0c2c3;fill-opacity:1;stroke:#eb7b51;stroke-width:0.3;stroke-linecap:butt;stroke-linejoin:miter;stroke-opacity:1;stroke-miterlimit:4;stroke-dasharray:none"
       d="m 68.261455,298.9045 -1.1187,-13.39448 8.397409,13.44514 4.22612,-8.41902 6.165091,8.49133 z"
       id="path2247" />
    <path
       style="fill:#d0d1ce;fill-opacity:1;stroke:#eb7b51;stroke-width:0.9;stroke-linecap:butt;stroke-linejoin:miter;stroke-opacity:1;stroke-miterlimit:4;stroke-dasharray:none"
       d="m 42.196204,227.85065 6.016115,-12.40153 -8.280289,-21.20266 0.280528,18.78177"
       id="path2249" />
    <path
       style="fill:#161d2d;fill-opacity:1;stroke:#eb7b51;stroke-width:0.3;stroke-linecap:butt;stroke-linejoin:miter;stroke-opacity:1;stroke-miterlimit:4;stroke-dasharray:none"
       d="m 109.79592,218.71383 12.09994,68.64824 -1.73428,11.90363 23.35549,1.19005 -11.10815,-44.89258 z"
       id="path2269" />
    <path
       style="fill:#161d2d;fill-opacity:1;stroke:#eb7b51;stroke-width:0.3;stroke-linecap:butt;stroke-linejoin:miter;stroke-opacity:1;stroke-miterlimit:4;stroke-dasharray:none"
       d="m 118.92046,211.7929 21.51043,-24.66488 24.50902,72.92441 -5.15736,32.173 -4.76062,7.48211 -11.50486,0.74821 z"
       id="path2271" />
    <path
       style="fill:#909295;fill-opacity:1;stroke:#eb7b51;stroke-width:0.9;stroke-linecap:butt;stroke-linejoin:miter;stroke-opacity:1;stroke-miterlimit:4;stroke-dasharray:none"
       d="m 140.43089,187.12802 20.74019,-23.78169 7.33932,35.35289 v 28.80609 l -3.57049,32.54712 -13.87173,-41.27412 -10.63729,-31.65029"
       id="path2273" />
    <path
       style="fill:#282f42;fill-opacity:1;stroke:#eb7b51;stroke-width:0.3;stroke-linecap:butt;stroke-linejoin:miter;stroke-opacity:1;stroke-miterlimit:4;stroke-dasharray:none"
       d="m 163.55139,127.80636 -0.39672,8.23031 -4.91944,-1.75531 -1.03135,11.85613 11.30652,52.56173 -3.57049,61.35321 -5.15736,32.173 -4.76062,7.48211 55.14501,-0.65858 -1.58791,-11.31279 -10.71142,-5.61156 9.91799,-8.6044 v -18.33114 l -7.14094,-5.61158 v -9.72673 l -12.29831,-14.96421 4.36391,-29.55427 -5.15736,-8.6044 5.15736,-11.97135 -7.93439,-10.10083 0.39673,-12.34548 -1.58689,-17.58292 -20.03432,-6.92094"
       id="path2277" />
    <path
       style="fill:#909295;fill-opacity:1;stroke:#eb7b51;stroke-width:0.9;stroke-linecap:butt;stroke-linejoin:miter;stroke-opacity:1;stroke-miterlimit:4;stroke-dasharray:none"
       d="m 124.29713,205.62776 c 10.09539,11.40262 21.58522,-2.2794 21.58522,-2.2794 l -11.09311,14.80432"
       id="path2279" />
    <path
       style="fill:#d0d1ce;fill-opacity:1;stroke:#eb7b51;stroke-width:0.9;stroke-linecap:butt;stroke-linejoin:miter;stroke-opacity:1;stroke-miterlimit:4;stroke-dasharray:none"
       d="m 127.87453,248.17409 -8.39917,-13.68699 5.24045,-1.80385 z"
       id="path2281" />
    <path
       style="fill:#909295;fill-opacity:1;stroke:#eb7b51;stroke-width:0.9;stroke-linecap:butt;stroke-linejoin:miter;stroke-opacity:1;stroke-miterlimit:4;stroke-dasharray:none"
       d="m 136.23476,274.20541 2.84022,8.29802 8.01256,-13.84658 14.20506,14.14848 3.64731,-22.7529 -10.3147,10.84904 -9.52127,-12.71957 z"
       id="path2283" />
    <path
       style="fill:#c0c2c3;fill-opacity:1;stroke:#eb7b51;stroke-width:0.3;stroke-linecap:butt;stroke-linejoin:miter;stroke-opacity:1;stroke-miterlimit:4;stroke-dasharray:none"
       d="m 134.35496,299.9889 -3.92964,-12.25273 -1.80063,11.96074 4.89639,0.2495"
       id="path2285" />
    <path
       style="fill:#d0d1ce;fill-opacity:1;stroke:#eb7b51;stroke-width:0.9;stroke-linecap:butt;stroke-linejoin:miter;stroke-opacity:1;stroke-miterlimit:4;stroke-dasharray:none"
       d="m 168.5104,212.167 -9.52128,-18.70524 -11.67204,14.15549 16.38106,-31.2892 3.21824,14.961 z"
       id="path2287" />
    <path
       style="fill:#d0d1ce;fill-opacity:1;stroke:#eb7b51;stroke-width:0.9;stroke-linecap:butt;stroke-linejoin:miter;stroke-opacity:1;stroke-miterlimit:4;stroke-dasharray:none"
       d="m 166.89036,242.27276 9.95113,-20.37903 7.14096,23.94272 4.3639,-20.9499 12.29831,14.96421 v 9.72673 l -8.02919,-19.4964 -9.42647,17.25176 -16.16002,-6.32369"
       id="path2289" />
    <path
       style="fill:#d0d1ce;fill-opacity:1;stroke:#eb7b51;stroke-width:0.3;stroke-linecap:butt;stroke-linejoin:miter;stroke-opacity:1;stroke-miterlimit:4;stroke-dasharray:none"
       d="m 163.15467,136.03667 5.75244,11.7843 6.99388,-15.74839 -1.04309,17.24481 8.72781,-14.59009 -8.3358,-2.87964 -12.09524,4.18901"
       id="path2291" />
    <path
       style="fill:#909295;fill-opacity:1;stroke:#eb7b51;stroke-width:0.9;stroke-linecap:butt;stroke-linejoin:miter;stroke-opacity:1;stroke-miterlimit:4;stroke-dasharray:none"
       d="m 161.17108,163.34633 31.53918,11.4102 -7.93439,-10.10083 -23.60479,-1.30937"
       id="path2293" />
    <path
       style="fill:#909295;fill-opacity:1;stroke:#eb7b51;stroke-width:0.9;stroke-linecap:butt;stroke-linejoin:miter;stroke-opacity:1;stroke-miterlimit:4;stroke-dasharray:none"
       d="m 159.78255,292.22543 48.79648,-4.48926 -10.71142,-5.61156 -17.05892,2.61873 -9.91799,-4.48926 z"
       id="path2295" />
    <path
       style="fill:#5e3424;fill-opacity:1;stroke:#eb7b51;stroke-width:0.3;stroke-linecap:butt;stroke-linejoin:miter;stroke-opacity:1;stroke-miterlimit:4;stroke-dasharray:none"
       d="m 44.139879,298.73665 -44.477077,0.31231 V 1.2920615 L 97.100906,0.04956302 98.421057,25.34274 l -9.678038,4.364781 -5.049414,-0.925863 -6.732551,5.555172 -4.628627,-0.132265 -2.945488,6.216503 -5.750729,-0.396798 -1.122082,4.893845 -9.116995,4.893842 -1.683137,9.12636 -6.872811,2.513049 -5.610459,11.639414 -1.83608,7.952483 -5.15735,0.374102 0.793431,7.669145 -4.958988,3.179896 4.562273,5.798619 -12.298299,3.741055 8.529466,10.84904 1.190157,11.59724 -6.347507,-0.74821 14.678621,6.92094 3.768822,9.35263 -2.975391,2.24463 -9.627196,5.66646 -1.683137,41.53155 3.646793,5.55517 -3.646793,21.95616 6.171504,11.37488 -3.646803,24.07242 8.976746,19.31085 -0.280529,13.2266 7.293597,6.34876 z"
       id="path2297" />
    <path
       style="fill:#815846;fill-opacity:1;stroke:#eb7b51;stroke-width:0.3;stroke-linecap:butt;stroke-linejoin:miter;stroke-opacity:1;stroke-miterlimit:4;stroke-dasharray:none"
       d="m 210.16694,299.04896 -1.58791,-11.31279 -10.71142,-5.61156 9.91799,-8.6044 v -18.33114 l -7.14094,-5.61158 v -9.72673 l -12.29831,-14.96421 4.36391,-29.55427 -5.15736,-8.6044 5.15736,-11.97135 -7.93439,-10.10083 -1.19016,-29.9284 -20.03432,-6.92094 11.90157,-15.52535 1.78524,-12.345458 11.10815,-1.30937 -0.19835,-5.985674 -8.13276,1.683472 -0.39672,-5.985682 4.95899,-3.55399 -1.78523,-12.158399 -6.94259,3.366935 34.31624,-16.460613 0.002,239.516729"
       id="path2301" />
    <path
       style="fill:#704735;fill-opacity:1;stroke:#eb7b51;stroke-width:0.6;stroke-linecap:butt;stroke-linejoin:miter;stroke-opacity:1;stroke-miterlimit:4;stroke-dasharray:none"
       d="m 182.79228,72.625909 -6.94259,3.366935 -6.34751,-15.338299 -5.15735,-5.237465 1.78524,-5.611573 -3.96719,-3.366945 v 0 l -9.71963,-2.43168 -2.57867,-9.165569 -5.9508,-0.74821 -6.54587,-8.043253 -5.75244,2.244629 -6.34749,-4.863364 -10.90979,3.179893 -5.137,1.641585 L 98.421057,25.34274 97.100906,0.04956302 210.16694,1.2920615 210.16497,59.532231 182.7913,72.625909"
       id="path2303" />
    <path
       style="fill:#5e3424;stroke:#eb7b51;stroke-width:0.00039015;stroke-linecap:butt;stroke-linejoin:miter;stroke-opacity:1;fill-opacity:1;stroke-miterlimit:4;stroke-dasharray:none"
       d="m 28.865179,112.65512 1.190156,11.59724 1.388521,-4.48925 z"
       id="path1141" />
    <path
       style="fill:#909295;stroke:#eb7b51;stroke-width:0.00117046;stroke-linecap:butt;stroke-linejoin:miter;stroke-opacity:1;fill-opacity:1;stroke-miterlimit:4;stroke-dasharray:none"
       d="m 43.785895,145.04387 4.456319,4.28792 0.06221,-1.32377 -4.518531,-2.96415"
       id="path1706" />
    <path
       style="fill:#0d0b0c;stroke:#eb7b51;stroke-width:0.00039015;stroke-linecap:butt;stroke-linejoin:miter;stroke-opacity:1;fill-opacity:1;stroke-miterlimit:4;stroke-dasharray:none"
       d="m 47.907709,128.74162 20.278889,8.99313 -6.59208,-3.5686 z"
       id="path1708" />
    <path
       style="fill:#0c0c0c;stroke:#eb7b51;stroke-width:0.3;stroke-linecap:butt;stroke-linejoin:miter;stroke-opacity:1;fill-opacity:1;stroke-miterlimit:4;stroke-dasharray:none"
       d="m 89.216097,131.17331 3.173764,4.67627 -1.537293,3.60076 3.024995,-2.71222 -1.487702,-0.88851 -0.694259,-2.94607 z"
       id="path1710" />
    <path
       style="fill:#100e0f;stroke:#eb7b51;stroke-width:0.3;stroke-linecap:butt;stroke-linejoin:miter;stroke-opacity:1;fill-opacity:1;stroke-miterlimit:4;stroke-dasharray:none"
       d="m 143.51707,139.21656 3.37211,8.97852 -1.19016,-4.30221 3.17375,-3.17989 z"
       id="path1712" />
    <path
       style="fill:#121212;stroke:#eb7b51;stroke-width:0.3;stroke-linecap:butt;stroke-linejoin:miter;stroke-opacity:1;fill-opacity:1;stroke-miterlimit:4;stroke-dasharray:none"
       d="m 164.93991,68.510744 4.56227,-7.856201 -1.30001,3.708352 -3.26226,4.147849"
       id="path1714" />
    <path
       style="fill:#121214;stroke:#eb7b51;stroke-width:0.3;stroke-linecap:butt;stroke-linejoin:miter;stroke-opacity:1;fill-opacity:1;stroke-miterlimit:4;stroke-dasharray:none"
       d="m 114.35819,26.611006 10.90979,-3.179891 -5.35572,2.805788 -5.55407,0.374103"
       id="path1716" />
    <path
       style="fill:#5e3424;stroke:#eb7b51;stroke-width:0.00039015;stroke-linecap:butt;stroke-linejoin:miter;stroke-opacity:1;fill-opacity:1;stroke-miterlimit:4;stroke-dasharray:none"
       d="m 51.713995,58.938315 1.683138,-9.12636 2.103925,4.100248 z"
       id="path1718" />
    <path
       style="fill:#111112;stroke:#eb7b51;stroke-width:0.3;stroke-linecap:butt;stroke-linejoin:miter;stroke-opacity:1;fill-opacity:1;stroke-miterlimit:4;stroke-dasharray:none"
       d="m 99.87794,70.334509 3.39596,-2.314355 0.15466,-0.704927 -3.55062,3.019282"
       id="path1720" />
    <path
       style="fill:#0f0f11;stroke:#eb7b51;stroke-width:0.3;stroke-linecap:butt;stroke-linejoin:miter;stroke-opacity:1;fill-opacity:1;stroke-miterlimit:4;stroke-dasharray:none"
       d="m 88.273902,79.64036 -0.999757,-0.101065 3.479252,-1.76946 -2.479495,1.870525"
       id="path1722" />
  </g>
</svg>
